<?xml version="1.0" standalone="no"?>
<!DOCTYPE svg PUBLIC "-//W3C//DTD SVG 20010904//EN"
 "http://www.w3.org/TR/2001/REC-SVG-20010904/DTD/svg10.dtd">
<svg version="1.0" xmlns="http://www.w3.org/2000/svg"
 width="1000.000000pt" height="1000.000000pt" viewBox="0 0 1000.000000 1000.000000"
 preserveAspectRatio="xMidYMid meet">
<metadata>
Created by potrace 1.11, written by Peter Selinger 2001-2013
</metadata>
<g transform="translate(0.000000,1000.000000) scale(0.100000,-0.100000)"
fill="#000000" stroke="none">
<path d="M822 8064 c-101 -18 -158 -38 -217 -77 -102 -67 -132 -165 -101 -333
27 -148 28 -166 31 -564 2 -212 5 -396 8 -410 3 -14 8 -45 11 -70 7 -54 14
-91 27 -150 6 -25 12 -52 14 -60 11 -50 63 -186 97 -255 76 -150 146 -243 315
-415 230 -234 304 -336 363 -499 50 -135 61 -242 47 -435 -7 -83 -5 -102 9
-123 15 -23 21 -25 68 -20 57 7 72 10 136 27 25 7 55 14 68 16 12 3 78 18 145
35 67 17 131 33 141 35 10 2 33 8 50 13 17 6 42 12 56 15 14 2 63 14 110 26
47 12 96 24 110 26 14 3 48 11 75 18 28 8 86 22 130 31 274 57 450 166 583
361 23 34 42 64 42 67 0 4 11 30 24 59 43 95 70 289 52 375 -15 71 -16 144 -2
177 19 45 53 83 64 70 9 -9 65 -202 77 -264 25 -128 24 -240 -4 -325 -43 -131
-104 -335 -121 -406 -52 -221 -18 -348 93 -354 54 -2 98 -32 121 -79 23 -48
20 -86 -13 -201 -29 -100 -54 -232 -67 -355 -4 -36 -8 -290 -10 -565 -2 -275
-5 -513 -7 -530 -31 -213 -73 -311 -182 -420 -57 -58 -89 -80 -175 -122 -58
-28 -123 -56 -144 -63 -59 -19 -150 -75 -184 -115 -33 -36 -48 -89 -38 -128
15 -60 92 -129 171 -152 45 -14 197 -14 254 -1 322 74 533 254 690 587 76 162
120 302 181 575 50 224 171 589 265 799 21 46 131 280 158 333 22 45 65 72
114 72 80 0 132 -53 148 -150 9 -59 52 -195 76 -242 25 -48 70 -91 83 -78 6 6
11 34 12 63 5 114 12 134 60 176 80 70 171 100 300 99 127 -1 215 -32 288
-102 l37 -34 -4 -96 c-3 -53 -2 -98 2 -101 15 -9 62 44 89 101 29 59 43 98 81
230 12 39 29 80 38 91 55 63 151 66 205 6 46 -50 168 -316 223 -483 31 -96 58
-182 60 -190 2 -8 13 -46 25 -85 31 -106 108 -396 115 -433 13 -77 76 -305
109 -395 127 -349 326 -585 578 -686 170 -68 340 -88 444 -52 129 46 196 170
138 259 -38 58 -95 92 -262 157 -216 84 -334 196 -397 376 -41 115 -47 199
-50 689 -4 453 -9 632 -21 710 -22 142 -37 208 -66 295 -47 140 -39 189 35
236 26 16 44 19 94 16 72 -5 93 8 113 69 12 36 9 174 -4 234 -4 14 -9 39 -11
55 -3 17 -23 95 -45 175 -79 292 -80 297 -76 410 3 76 13 136 35 220 17 63 33
123 36 134 7 28 11 29 27 4 37 -57 40 -90 19 -223 -45 -302 147 -636 444 -773
74 -35 108 -45 260 -77 202 -44 230 -51 555 -134 173 -44 326 -82 340 -85 14
-2 45 -9 70 -15 61 -14 93 -14 115 3 16 12 18 24 15 87 -8 154 -4 306 9 369
43 198 143 351 392 600 85 85 178 187 207 225 116 157 220 411 247 602 3 21 8
49 10 63 13 71 18 197 20 520 2 348 6 436 26 514 14 51 9 148 -9 204 -32 96
-146 176 -301 209 -113 25 -542 23 -666 -2 -11 -3 -47 -7 -79 -10 -64 -6 -69
-7 -231 -30 -329 -48 -475 -80 -725 -160 -322 -104 -677 -258 -935 -406 -123
-70 -250 -153 -260 -170 -20 -32 65 -53 215 -53 185 0 326 37 529 138 259 130
622 265 812 301 11 2 28 6 37 9 19 6 38 9 162 30 107 18 152 24 253 32 98 8
117 8 129 -4 12 -12 17 -47 9 -60 -4 -7 -81 -27 -172 -46 -507 -105 -947 -293
-1349 -579 -58 -41 -128 -85 -154 -97 -66 -30 -160 -48 -226 -43 -109 8 -161
31 -314 137 -31 21 -70 40 -88 42 -18 2 -47 6 -65 9 -130 20 -576 27 -743 12
-111 -10 -253 -34 -361 -61 -76 -19 -91 -20 -130 -9 -51 15 -170 40 -226 48
-21 3 -47 7 -58 10 -59 12 -226 20 -430 20 -247 0 -404 -9 -457 -27 -40 -13
-163 -72 -238 -115 -80 -45 -142 -63 -224 -64 -120 -1 -183 22 -337 127 -277
188 -470 295 -707 393 -248 102 -573 193 -777 217 -46 5 -76 34 -68 64 8 31
45 37 158 26 141 -14 275 -33 415 -61 226 -45 546 -162 820 -299 143 -72 210
-99 295 -120 117 -30 251 -37 382 -23 136 16 129 33 -55 146 -283 176 -692
360 -1065 480 -132 42 -389 108 -454 117 -21 2 -49 7 -63 9 -77 14 -345 51
-510 71 -30 3 -71 8 -90 10 -97 12 -460 10 -528 -2z m3148 -2140 c89 -48 149
-137 169 -250 12 -69 12 -91 -1 -161 -17 -93 -48 -134 -76 -100 -5 6 -18 44
-27 82 -20 78 -50 132 -104 183 -75 72 -186 95 -270 57 -40 -18 -42 -18 -55 1
-39 53 50 171 159 212 51 19 146 8 205 -24z m2413 12 c80 -29 155 -109 164
-174 7 -50 -11 -58 -69 -32 -53 24 -138 21 -193 -5 -86 -42 -146 -127 -170
-243 -8 -36 -20 -69 -26 -73 -37 -22 -77 60 -83 167 -11 242 184 429 377 360z
m-1185 -370 c49 -18 116 -62 154 -103 72 -77 119 -257 75 -285 -23 -15 -36 -8
-83 43 -70 73 -153 110 -252 112 -42 0 -90 -2 -106 -6 -54 -12 -137 -60 -174
-101 -42 -48 -60 -57 -86 -44 -29 15 -18 109 23 192 68 139 193 216 341 210
36 -2 84 -10 108 -18z"/>
<path d="M3095 4448 c-11 -5 -35 -28 -53 -51 -364 -452 -789 -735 -1442 -961
-90 -31 -166 -59 -168 -60 -4 -5 215 1 335 9 108 6 151 11 263 26 311 43 524
116 748 256 48 30 89 58 92 61 3 4 23 20 45 37 22 16 79 60 127 98 78 62 87
73 93 110 7 44 40 172 75 292 11 38 20 82 20 98 0 38 -25 73 -62 86 -37 13
-47 13 -73 -1z"/>
<path d="M6973 4450 c-30 -13 -56 -55 -56 -93 0 -18 16 -88 35 -157 20 -69 39
-143 44 -165 4 -22 8 -43 9 -47 2 -5 3 -17 4 -28 0 -11 11 -29 24 -39 12 -11
33 -30 47 -41 14 -12 70 -57 125 -100 333 -258 573 -352 1025 -399 122 -13
480 -14 480 -2 0 6 -5 11 -11 11 -11 0 -160 57 -224 85 -16 7 -66 29 -110 48
-256 111 -523 256 -720 391 -180 122 -415 331 -545 484 -47 55 -84 70 -127 52z"/>
<path d="M5008 3944 c-105 -27 -136 -56 -133 -126 7 -157 17 -341 20 -361 2
-12 6 -60 10 -107 4 -47 8 -98 10 -115 2 -16 6 -55 10 -85 10 -93 15 -130 40
-280 27 -162 25 -154 53 -270 20 -85 67 -232 82 -259 10 -18 83 206 106 324 2
11 8 43 14 70 15 78 20 108 25 140 3 17 7 41 9 55 3 14 8 44 11 68 12 102 15
120 21 177 10 90 12 113 19 200 4 44 9 96 11 115 1 19 6 105 10 190 4 85 7
163 8 174 1 28 -67 72 -140 91 -64 16 -120 16 -186 -1z"/>
</g>
</svg>
