<?xml version="1.0" standalone="no"?>
<!DOCTYPE svg PUBLIC "-//W3C//DTD SVG 20010904//EN"
 "http://www.w3.org/TR/2001/REC-SVG-20010904/DTD/svg10.dtd">
<svg version="1.0" xmlns="http://www.w3.org/2000/svg"
 width="1000.000000pt" height="1000.000000pt" viewBox="0 0 1000.000000 1000.000000"
 preserveAspectRatio="xMidYMid meet">
<metadata>
Created by potrace 1.11, written by Peter Selinger 2001-2013
</metadata>
<g transform="translate(0.000000,1000.000000) scale(0.100000,-0.100000)"
fill="#000000" stroke="none">
<path d="M6396 9739 c-8 -23 -112 -408 -122 -449 -2 -8 -35 -134 -74 -280 -40
-146 -73 -274 -76 -284 -2 -10 -8 -34 -14 -52 -10 -30 -15 -33 -38 -27 -15 3
-89 23 -165 43 -123 33 -139 35 -146 21 -5 -9 -32 -104 -61 -211 -80 -301 -80
-278 4 193 9 48 19 104 22 123 3 20 7 44 9 53 1 9 6 36 10 61 4 25 9 52 10 60
2 8 10 53 19 100 8 47 18 101 21 120 5 32 27 154 40 225 3 17 8 49 11 72 l6
41 -76 12 c-41 7 -79 13 -83 14 -4 0 -11 -17 -14 -39 -4 -22 -10 -53 -13 -70
-3 -16 -24 -133 -46 -260 -22 -126 -42 -240 -44 -251 -2 -12 -7 -39 -10 -60
-8 -48 -17 -103 -23 -129 -5 -23 -29 -164 -44 -250 -12 -70 -14 -85 -29 -165
-15 -79 -15 -83 -44 -250 -37 -216 -34 -207 -61 -196 -10 3 -14 13 -11 23 2
10 8 59 11 108 4 50 8 106 10 125 2 19 6 69 10 110 3 41 8 91 10 110 2 19 7
73 10 120 3 47 8 101 10 120 2 19 7 73 11 120 4 47 8 99 9 115 2 17 6 67 10
113 l6 82 -28 1 c-103 6 -126 4 -128 -11 -2 -14 -10 -118 -21 -285 -2 -38 -6
-97 -9 -130 -3 -33 -7 -98 -11 -145 -3 -47 -7 -86 -9 -88 -2 -2 -111 -4 -242
-5 l-238 -2 -2 -44 -3 -44 33 6 c19 3 38 2 43 -1 10 -7 13 -366 4 -375 -3 -3
-36 -8 -75 -11 -90 -8 -164 -15 -195 -21 -14 -2 -45 -7 -70 -10 -25 -4 -73
-13 -106 -20 -34 -8 -74 -16 -89 -19 -15 -3 -29 -7 -32 -10 -5 -4 11 -61 112
-416 37 -129 71 -243 76 -252 7 -13 15 -15 41 -8 170 46 486 67 701 47 63 -6
211 -29 262 -41 6 -1 26 -6 45 -10 35 -8 173 -47 177 -50 1 -1 -2 -19 -7 -39
-7 -35 -6 -39 17 -48 46 -17 60 -12 67 26 l7 35 36 -15 c19 -8 41 -15 48 -15
7 0 57 81 111 180 55 99 104 180 109 180 6 0 44 -18 85 -40 41 -22 78 -40 81
-40 4 0 37 54 75 120 l67 119 39 -21 c21 -12 40 -19 43 -16 8 8 -279 151 -397
198 -60 23 -108 45 -108 49 0 4 6 30 14 57 13 44 75 275 80 299 2 6 8 30 15
55 7 25 27 101 46 170 19 69 54 202 79 295 25 94 68 256 97 360 28 105 66 246
84 315 28 108 88 332 102 381 3 11 -3 18 -20 23 -14 3 -32 9 -41 12 -9 3 -18
0 -20 -7z m-1198 -1582 c13 0 13 -27 -3 -232 -2 -27 -6 -95 -10 -150 -6 -100
-14 -177 -20 -183 -1 -1 -107 -4 -235 -5 l-233 -2 -4 27 c-4 34 1 35 157 43
69 4 126 8 127 9 4 4 12 101 18 232 4 73 8 140 10 150 2 11 4 43 4 72 l1 54
88 -8 c48 -4 93 -7 100 -7z m404 -285 c53 -15 100 -31 103 -34 5 -4 -32 -160
-61 -259 -3 -13 4 -18 31 -23 19 -4 35 -10 35 -13 0 -3 -21 -85 -46 -182 -25
-97 -47 -181 -48 -188 -1 -7 -5 -15 -7 -18 -5 -5 -198 40 -206 48 -1 2 2 28 8
58 6 30 13 65 15 79 3 14 13 62 23 108 10 45 15 84 12 86 -3 2 -20 7 -38 10
-37 8 -38 -7 12 183 47 179 44 173 58 173 7 -1 56 -13 109 -28z"/>
<path d="M3340 8727 c0 -7 39 -103 86 -213 48 -109 95 -221 106 -249 11 -27
23 -54 27 -60 15 -22 32 -87 25 -95 -5 -4 -118 -69 -251 -144 l-243 -137 20
-37 c10 -20 64 -113 119 -207 94 -160 99 -171 82 -185 -18 -15 -209 -164 -240
-187 -15 -11 -59 29 -335 306 l-318 319 -151 -154 c-83 -85 -153 -151 -156
-146 -3 5 -143 122 -309 261 -291 242 -304 252 -320 234 -38 -41 -94 -114 -91
-117 9 -5 114 -91 119 -96 3 -3 70 -59 150 -125 80 -66 147 -122 150 -125 3
-3 32 -28 65 -56 33 -27 71 -59 85 -71 52 -45 393 -329 409 -340 13 -10 24 -5
64 32 26 25 51 45 55 45 4 0 25 -17 48 -38 132 -121 156 -142 163 -142 4 0 42
36 84 81 43 44 81 79 86 77 6 -2 71 -61 145 -132 l136 -129 -37 -41 c-79 -89
-182 -196 -189 -196 -4 0 -51 44 -106 97 -58 57 -102 93 -106 87 -4 -5 -35
-47 -70 -92 l-62 -81 107 -72 c60 -39 112 -75 117 -79 4 -5 -6 -29 -23 -53
-17 -25 -31 -50 -31 -56 0 -5 80 -64 178 -129 l178 -120 39 62 c143 220 391
467 626 621 41 27 75 49 77 51 5 3 -31 74 -37 74 -3 0 -42 -23 -86 -50 -44
-26 -80 -48 -81 -47 -9 11 -134 220 -134 223 0 3 -7 16 -16 29 l-16 25 -26
-20 c-14 -11 -26 -19 -27 -18 0 2 -9 15 -18 30 l-16 26 155 93 c86 51 158 98
160 104 3 6 -48 113 -112 239 -64 125 -114 229 -112 231 17 15 93 45 104 41
15 -6 8 18 -21 74 l-15 30 37 15 c72 30 75 3 -26 260 -27 69 -29 80 -16 88 14
7 14 11 1 35 -18 31 -117 244 -148 315 -14 32 -26 47 -39 47 -11 0 -19 -6 -19
-13z"/>
<path d="M4095 8708 c-38 -11 -71 -21 -72 -22 -4 -3 134 -476 139 -482 4 -3
149 35 156 41 3 3 -67 264 -114 433 -9 28 -21 52 -27 51 -7 0 -43 -10 -82 -21z"/>
<path d="M3868 8647 c-42 -12 -79 -24 -82 -27 -3 -3 11 -64 30 -135 19 -72 48
-179 64 -239 16 -59 31 -110 33 -113 5 -5 153 34 173 46 8 4 -4 58 -37 171
-27 91 -58 200 -70 243 -12 42 -24 77 -28 76 -3 0 -41 -11 -83 -22z"/>
<path d="M7123 8312 c-215 -321 -285 -417 -301 -415 -9 2 -82 36 -162 78 -80
41 -148 75 -152 75 -3 0 -15 -15 -26 -33 l-19 -33 250 -146 c138 -80 255 -144
261 -142 6 2 21 19 34 38 12 18 44 55 70 82 42 44 336 454 330 459 -11 9 -208
145 -210 145 -2 0 -35 -49 -75 -108z"/>
<path d="M3600 7851 c0 -6 4 -13 10 -16 6 -3 7 1 4 9 -7 18 -14 21 -14 7z"/>
<path d="M3620 7811 c0 -6 4 -13 10 -16 6 -3 7 1 4 9 -7 18 -14 21 -14 7z"/>
<path d="M7373 7659 c-90 -88 -163 -164 -163 -167 0 -4 16 -20 35 -37 l35 -30
-58 -60 c-31 -34 -89 -95 -127 -137 -39 -42 -75 -78 -81 -80 -10 -3 -63 38
-143 109 -20 18 -40 32 -46 32 -5 0 -59 -61 -119 -135 l-108 -134 -46 34 c-26
19 -48 38 -49 43 -2 5 44 68 102 138 58 71 105 132 105 136 0 9 -60 53 -65 48
-2 -2 -46 -67 -98 -144 -55 -82 -101 -140 -110 -140 -15 0 -198 -256 -201
-281 0 -6 46 -46 104 -89 104 -78 308 -274 385 -369 22 -27 62 -80 88 -118
l48 -68 57 36 c145 92 242 157 242 162 0 3 -11 20 -25 38 -14 18 -25 37 -25
42 0 13 52 35 60 25 4 -4 16 -20 26 -34 l20 -27 75 45 c41 25 88 54 106 64
l31 20 38 -63 c20 -35 46 -75 56 -90 l18 -26 78 38 c42 21 80 35 85 31 11 -11
88 -163 84 -167 -2 -2 -147 -74 -323 -159 -175 -86 -347 -170 -381 -188 l-61
-31 14 -33 c8 -18 21 -50 30 -70 9 -21 17 -39 18 -40 2 -2 74 18 162 43 177
51 320 92 346 98 9 3 42 13 73 22 43 14 58 15 67 6 9 -9 7 -12 -8 -12 -11 0
-24 -4 -29 -8 -6 -5 -47 -23 -92 -41 l-81 -33 13 -46 c8 -26 28 -86 44 -134
16 -48 27 -90 23 -92 -6 -4 -83 -26 -107 -32 -42 -9 -302 -88 -308 -94 -4 -4
-3 -29 3 -56 29 -128 39 -254 35 -459 -2 -115 -6 -226 -10 -245 -3 -19 -13
-73 -21 -119 -8 -46 -14 -85 -12 -87 2 -1 19 -6 38 -9 18 -3 101 -19 182 -35
82 -17 153 -30 157 -30 5 0 12 16 15 35 4 19 9 35 11 35 19 0 55 -27 55 -40 0
-25 -60 -264 -69 -273 -4 -4 -106 18 -226 48 -121 30 -222 51 -226 47 -8 -9
-99 -232 -102 -250 -1 -8 117 -79 288 -174 160 -88 292 -161 293 -163 2 -2
-31 -65 -72 -141 -54 -98 -73 -140 -64 -145 18 -12 24 -5 85 98 76 131 165
311 208 423 19 51 37 96 40 100 2 4 66 -10 142 -30 286 -78 398 -107 401 -105
2 2 37 139 46 180 28 136 40 173 56 170 32 -6 95 -16 130 -21 19 -2 46 -6 60
-9 14 -3 40 -7 58 -9 49 -7 41 21 -10 34 -100 26 -307 82 -353 95 -57 16 -285
76 -362 96 -59 14 -65 22 -53 73 4 20 5 36 1 37 -3 0 -15 2 -26 4 -11 3 -42 7
-70 10 -50 6 -102 14 -135 20 -21 4 -32 -17 -23 -41 4 -12 0 -14 -23 -10 -16
2 -34 5 -40 5 -10 1 -8 32 4 84 1 4 2 16 2 28 0 18 4 20 38 14 20 -3 66 -10
102 -15 36 -5 92 -14 125 -20 33 -5 61 -10 63 -10 1 0 2 9 2 20 0 19 5 20 83
15 45 -4 93 -8 107 -10 14 -2 63 -7 110 -10 47 -4 101 -8 120 -10 19 -2 73 -6
120 -10 47 -4 96 -8 110 -10 14 -2 70 -7 125 -10 55 -4 107 -9 116 -10 8 -2
54 -6 101 -10 101 -8 94 -17 104 130 3 55 7 104 7 108 1 5 -27 11 -63 13 -36
3 -74 7 -85 9 -11 2 -35 4 -52 4 l-33 1 0 135 0 135 -160 0 c-177 0 -161 -7
-164 70 -1 43 -6 47 -54 45 l-37 -1 3 -67 3 -67 -68 -1 c-37 0 -137 -2 -220
-5 l-153 -6 -1 34 c-16 365 -81 667 -219 1016 -18 45 -31 83 -29 85 2 2 84 40
182 84 147 67 182 80 197 71 19 -12 10 -16 190 70 52 24 122 57 155 72 130 60
279 131 282 134 6 6 -100 226 -108 226 -5 0 -56 -23 -115 -50 -59 -28 -108
-49 -109 -48 -2 2 -17 27 -35 56 -17 28 -33 52 -35 52 -1 0 -71 -39 -155 -86
-84 -48 -155 -82 -159 -77 -3 5 -28 45 -55 89 -78 125 -66 120 -153 68 -41
-24 -76 -44 -77 -44 -2 0 -65 -36 -142 -81 -76 -45 -140 -77 -142 -71 -5 15
-96 136 -160 211 l-54 64 171 166 c94 91 171 171 171 177 0 6 -11 21 -25 34
-14 13 -25 28 -25 33 0 5 57 64 128 132 l127 124 -110 110 -110 110 -162 -160z
m-454 -566 c-79 -83 -84 -88 -108 -116 l-25 -27 64 -65 c63 -64 64 -65 45 -85
-10 -11 -22 -19 -26 -18 -7 3 -126 108 -198 174 l-45 42 118 120 118 120 50
-50 51 -49 -44 -46z m972 -1922 c0 -14 2 -79 4 -144 1 -65 6 -121 9 -124 9 -9
31 -12 91 -14 62 -2 75 -11 69 -52 -2 -18 -6 -54 -8 -82 -2 -27 -5 -54 -5 -59
-1 -7 -95 -4 -256 9 -27 2 -75 5 -105 6 -30 1 -60 6 -66 10 -7 6 -12 87 -13
243 l-2 234 123 1 c67 1 124 4 126 6 11 11 32 -10 33 -34z"/>
<path d="M3916 7722 c-5 -8 84 -245 97 -259 6 -5 -21 97 -56 216 -12 43 -29
61 -41 43z"/>
<path d="M3749 7651 c-19 -10 -34 -22 -33 -25 1 -4 70 -149 155 -322 171 -351
214 -402 109 -132 -34 90 -68 177 -75 193 -7 17 -36 91 -65 165 -29 74 -53
136 -54 137 -1 2 -18 -6 -37 -16z"/>
<path d="M4330 7173 c-75 -23 -103 -31 -147 -43 -41 -10 -42 -11 -31 -41 6
-16 16 -29 22 -27 7 2 60 19 119 38 95 31 106 37 101 55 -10 32 -16 33 -64 18z"/>
<path d="M2078 6801 c-98 -148 -178 -273 -178 -278 0 -7 61 -43 74 -43 4 0 80
117 265 404 l90 140 -32 23 c-17 13 -33 23 -36 23 -3 -1 -86 -122 -183 -269z"/>
<path d="M9020 6604 c-129 -47 -244 -89 -255 -94 -17 -8 -267 -99 -557 -203
-49 -17 -88 -36 -87 -42 1 -22 58 -150 66 -148 4 1 89 32 188 68 99 37 353
130 565 207 212 77 386 141 388 143 6 5 -54 155 -63 155 -5 -1 -116 -39 -245
-86z"/>
<path d="M2532 6598 c-11 -18 -37 -60 -57 -93 -82 -132 -265 -528 -265 -573 0
-6 -4 -13 -9 -17 -8 -4 -117 33 -186 65 -26 12 -238 82 -347 115 -136 41 -316
83 -327 76 -5 -3 -13 -20 -16 -36 -4 -17 -24 -93 -45 -170 -57 -213 -56 -191
-7 -204 155 -41 503 -133 516 -136 9 -2 49 -13 88 -24 40 -12 79 -21 86 -21 8
0 24 48 45 139 l33 139 337 -85 c185 -47 341 -89 346 -93 4 -4 -8 -63 -27
-129 -19 -67 -32 -123 -28 -125 5 -4 37 -9 115 -20 17 -2 24 14 52 123 51 197
125 386 206 525 16 27 28 49 26 51 -36 26 -100 66 -102 63 -13 -15 -126 -221
-126 -228 0 -8 -313 159 -332 178 -6 6 14 51 55 123 73 128 99 175 134 236
l23 42 -77 55 c-43 31 -81 56 -85 56 -3 0 -15 -15 -26 -32z"/>
<path d="M8555 6169 c-16 -5 -39 -11 -50 -13 -50 -10 -301 -79 -306 -85 -4 -3
22 -94 56 -201 59 -185 63 -195 86 -192 54 6 56 10 35 97 -2 11 -11 48 -19 81
l-15 62 156 46 c85 25 156 47 158 49 1 1 -7 39 -19 85 -23 87 -25 89 -82 71z"/>
<path d="M1542 5432 c1 -16 -10 -233 -17 -352 -2 -30 -7 -110 -10 -177 l-7
-123 270 0 c149 0 273 -3 275 -7 3 -5 8 -48 11 -97 4 -49 9 -92 10 -95 2 -3 7
-26 10 -51 3 -25 8 -56 11 -70 3 -14 8 -41 11 -60 4 -19 8 -38 10 -41 2 -4 31
2 65 12 33 10 70 21 82 23 12 3 86 18 165 35 78 17 168 34 200 37 l57 5 38
-128 c20 -70 37 -133 37 -140 0 -7 -19 -17 -42 -23 -117 -31 -502 -142 -507
-146 -4 -4 61 -174 110 -284 21 -47 35 -88 31 -91 -11 -10 -403 -189 -414
-189 -5 0 -16 17 -24 38 -9 20 -29 65 -45 98 -16 34 -29 67 -29 73 0 15 -17
14 -61 -6 -32 -14 -36 -19 -29 -37 7 -19 132 -281 209 -441 35 -71 44 -59
-111 -146 -60 -34 -110 -65 -113 -69 -5 -8 32 -80 41 -80 3 0 138 77 302 172
443 255 465 268 468 268 1 0 19 -24 40 -52 21 -29 69 -93 108 -142 l69 -88
-313 -309 -314 -310 79 -79 c44 -44 82 -80 85 -80 3 1 52 46 110 101 l105 100
50 -55 c28 -31 55 -56 59 -56 5 0 50 40 100 89 50 49 118 115 151 146 33 32
86 82 117 113 l57 55 53 -44 c29 -24 55 -46 58 -50 16 -18 221 -158 314 -214
l109 -65 20 32 c10 18 28 47 38 64 l19 31 -189 127 -190 127 17 29 c9 17 20
30 23 30 3 0 41 -25 83 -56 73 -52 79 -54 92 -37 7 10 56 82 109 160 l96 142
32 -18 c18 -10 73 -39 122 -66 50 -26 91 -49 93 -50 2 -2 -6 -18 -16 -36 -10
-19 -32 -59 -49 -89 -16 -30 -74 -135 -128 -232 -53 -97 -97 -180 -97 -185 -1
-4 12 -15 28 -24 43 -24 265 -117 297 -125 16 -3 31 -12 33 -19 3 -7 -15 -85
-40 -174 -25 -89 -67 -234 -92 -323 -25 -89 -47 -169 -49 -177 -2 -9 -14 -49
-25 -89 -12 -41 -20 -75 -18 -77 2 -2 15 -6 29 -10 25 -6 27 -3 62 97 21 58
37 110 37 116 0 16 20 15 94 -2 34 -8 102 -24 151 -35 50 -11 129 -29 177 -41
98 -23 99 -23 96 -12 -1 4 1 21 5 37 3 17 9 46 11 65 3 19 8 45 10 58 3 13 15
78 26 145 11 67 23 133 25 147 13 74 25 132 30 140 3 4 14 6 26 3 21 -6 22
-12 4 -193 -9 -98 -17 -187 -20 -220 -1 -19 -6 -74 -10 -123 l-7 -87 48 -1
c27 -1 63 -2 79 -4 17 -1 42 -3 58 -4 27 -1 27 -1 23 -63 -7 -92 -19 -350 -18
-372 1 -21 9 -32 18 -24 3 4 8 30 11 60 3 29 8 71 12 93 l7 40 59 0 c58 0 60
-1 58 -25 -3 -50 -14 -186 -18 -220 -2 -19 -8 -96 -15 -170 -6 -74 -13 -153
-15 -175 -2 -22 -6 -78 -10 -125 -4 -47 -9 -101 -10 -120 -2 -19 -6 -69 -10
-110 -3 -41 -8 -94 -10 -116 -4 -36 -1 -43 18 -48 36 -10 64 -7 64 7 0 16 13
152 18 197 2 19 7 69 10 110 11 135 15 183 30 345 2 17 6 68 10 115 3 47 8 99
10 115 2 17 7 71 10 120 4 54 11 94 19 100 7 6 54 9 104 9 l92 -1 0 158 c0 93
-5 169 -11 186 -13 32 -15 56 -25 278 -3 88 -7 177 -8 197 -2 21 2 38 8 39 6
1 22 2 36 3 14 2 59 6 100 10 85 8 260 35 271 42 4 2 -4 43 -17 92 -14 48 -36
128 -49 177 -13 50 -43 157 -65 238 -23 82 -40 150 -38 152 1 2 59 19 127 38
68 20 126 38 129 41 15 15 -12 16 -55 3 -98 -31 -284 -64 -411 -72 l-63 -5 6
68 c4 37 8 90 11 117 2 28 7 74 10 103 l5 52 -45 0 -46 0 -1 -37 c-1 -21 -2
-49 -4 -63 -1 -14 -5 -63 -9 -110 -8 -102 -10 -112 -18 -126 -7 -11 -77 -11
-218 0 -111 9 -141 13 -275 40 -207 42 -462 140 -653 252 -339 198 -612 469
-808 801 -52 89 -69 110 -82 104 -51 -21 -92 -46 -92 -54 0 -5 31 -60 69 -123
56 -90 67 -115 57 -123 -23 -19 -347 -211 -355 -211 -5 0 -27 35 -49 78 -23
42 -64 120 -91 172 -89 166 -105 199 -100 204 2 3 116 59 252 126 136 66 245
125 242 130 -32 51 -114 346 -130 465 -3 17 -7 46 -9 65 -15 102 -18 159 -17
305 0 88 7 206 14 262 15 117 23 104 -78 123 -33 6 -78 16 -100 21 -22 5 -77
15 -122 24 -45 8 -94 17 -107 21 -23 5 -26 2 -41 -49 l-16 -54 -72 12 c-39 7
-91 15 -113 18 -23 4 -85 13 -139 22 -156 25 -224 33 -320 40 -49 4 -100 8
-112 10 -15 2 -21 -2 -21 -13z m762 -327 c-3 -93 -7 -205 -8 -247 -1 -43 -5
-80 -7 -83 -3 -3 -19 -7 -36 -9 l-31 -3 3 71 c2 39 6 143 10 231 4 88 7 167 7
175 -1 31 8 40 37 38 l30 -2 -5 -171z m800 -2068 c142 -136 148 -144 135 -165
-18 -29 -27 -28 -74 14 l-39 36 -94 -98 -93 -97 -52 50 c-29 28 -78 75 -109
104 -32 30 -58 59 -58 65 0 6 10 20 23 31 12 11 62 61 111 112 49 50 92 91 95
91 3 0 73 -64 155 -143z m1276 -279 c69 -17 126 -32 128 -34 3 -2 -62 -250
-104 -400 l-15 -52 -57 18 c-41 13 -59 15 -63 6 -3 -6 -19 -56 -34 -112 l-27
-101 -76 18 c-41 10 -79 22 -84 27 -6 6 7 74 32 173 40 156 68 266 75 299 5
22 45 173 51 189 3 8 12 11 27 7 12 -3 78 -20 147 -38z m500 -473 c102 -4 199
-7 215 -8 l30 -2 3 -137 3 -138 -33 -1 c-51 -1 -152 -1 -165 0 -9 1 -12 28
-12 94 1 50 1 97 0 103 -1 7 -36 15 -93 20 -51 4 -104 9 -118 10 -14 1 -42 3
-62 3 -36 1 -38 3 -38 34 0 34 0 34 43 31 23 -1 125 -5 227 -9z"/>
<path d="M4925 5375 c-72 -18 -114 -38 -162 -79 -158 -137 -184 -383 -56 -542
125 -155 364 -183 525 -60 46 36 103 100 125 144 23 43 41 135 38 190 -11 227
-247 401 -470 347z"/>
<path d="M1450 4264 c-85 -24 -166 -46 -179 -49 -38 -7 -44 -19 -32 -58 6 -19
13 -43 16 -53 23 -104 76 -284 84 -284 3 0 74 18 156 40 83 22 155 40 161 40
6 0 21 -30 34 -67 13 -38 24 -69 25 -71 1 -1 19 5 39 13 27 12 36 20 32 33 -4
16 -77 287 -116 432 -15 56 -20 65 -41 67 -13 1 -94 -19 -179 -43z"/>
<path d="M6794 3663 c-10 -16 -22 -33 -28 -39 -6 -6 -27 -31 -46 -57 -62 -82
-272 -282 -380 -361 -58 -43 -115 -85 -128 -94 l-23 -17 115 -172 c63 -94 124
-177 135 -185 21 -15 141 -205 141 -223 0 -5 -30 -27 -65 -48 -36 -21 -64 -41
-62 -45 3 -4 43 -86 89 -182 141 -290 281 -575 284 -578 1 -2 59 28 128 68
120 69 124 73 111 94 -7 11 -79 136 -160 276 -81 140 -172 297 -202 349 -30
51 -53 94 -51 95 17 10 214 158 249 187 l46 38 208 -210 209 -209 133 134 c73
73 133 140 133 149 0 9 -10 28 -23 43 l-24 27 -28 -36 c-28 -35 -29 -35 -52
-18 -20 16 -130 114 -196 175 -13 12 -53 48 -90 82 -64 59 -66 61 -49 80 55
59 192 229 192 238 -1 6 -54 47 -119 91 l-119 80 23 33 23 34 -168 114 c-93
63 -173 114 -178 114 -5 0 -18 -12 -28 -27z m214 -473 c12 -12 22 -22 22 -24
0 -3 -25 -30 -157 -169 l-65 -68 -24 22 -24 23 38 40 c121 128 158 169 165
182 11 19 19 18 45 -6z"/>
<path d="M710 3577 c-47 -17 -86 -31 -88 -32 -1 -1 10 -36 25 -78 18 -51 33
-77 43 -76 8 0 49 13 90 29 60 22 74 32 72 46 -6 35 -45 144 -51 143 -3 0 -44
-15 -91 -32z"/>
<path d="M7998 3317 c-104 -177 -93 -158 -160 -274 -31 -54 -58 -103 -60 -109
-2 -7 51 -49 117 -96 231 -161 314 -218 327 -223 9 -4 39 31 85 97 l71 103
-83 55 c-46 30 -84 61 -84 68 -1 11 82 161 170 308 l18 30 -107 62 c-59 34
-130 75 -159 91 l-51 31 -84 -143z"/>
<path d="M5791 2901 c-12 -8 1 -51 78 -251 51 -133 89 -245 85 -249 -5 -5 -89
-34 -187 -66 -97 -32 -179 -60 -181 -64 -2 -3 3 -41 11 -84 l16 -78 41 6 c23
4 55 11 71 16 17 5 77 23 134 40 57 17 164 55 239 85 74 30 136 53 137 52 2
-2 28 -57 58 -123 30 -66 78 -169 106 -229 29 -60 50 -110 49 -111 -2 -1 -22
-12 -45 -24 -24 -12 -43 -23 -43 -25 0 -1 6 -16 14 -32 8 -16 56 -121 107
-234 50 -113 95 -209 99 -213 5 -6 212 82 227 97 2 2 -15 41 -37 88 -22 47
-40 90 -40 95 0 6 9 13 20 16 17 4 19 9 11 29 -10 24 -361 741 -366 746 -2 2
-21 -8 -44 -22 l-41 -26 26 -58 c37 -82 37 -82 26 -82 -5 0 -44 66 -87 148
-43 81 -80 149 -82 152 -2 2 -37 -12 -77 -32 l-73 -36 -118 239 c-66 131 -119
239 -119 239 -1 0 -8 -4 -15 -9z"/>
<path d="M7661 2799 c-28 -33 -51 -64 -51 -67 0 -4 16 -19 34 -34 l35 -28 18
30 c9 17 21 29 25 28 4 -2 164 -129 357 -283 l349 -279 -29 -37 -28 -36 41
-33 41 -33 43 49 c75 84 83 66 -102 221 -92 76 -172 143 -178 148 -51 45 -496
415 -500 415 -2 0 -27 -27 -55 -61z"/>
<path d="M2856 2219 c-9 -13 -16 -28 -16 -34 1 -5 73 -62 160 -124 88 -63 160
-116 160 -117 0 -1 -31 -53 -69 -116 l-68 -113 66 -39 c36 -21 89 -51 117 -67
l50 -28 85 146 c46 81 85 151 86 157 1 6 -44 40 -100 76 -56 35 -174 111 -262
169 -88 57 -167 106 -176 108 -10 3 -24 -5 -33 -18z"/>
<path d="M5894 1639 c-106 -31 -196 -59 -202 -63 -14 -9 8 -76 25 -76 13 0
343 92 376 105 20 8 20 18 4 61 l-12 30 -191 -57z"/>
<path d="M4105 573 c-3 -19 -5 -37 -3 -39 5 -4 144 -34 160 -34 6 0 9 2 6 6
-3 3 -2 20 2 39 9 38 7 40 -70 49 -25 3 -55 8 -67 10 -17 4 -22 -1 -28 -31z"/>
</g>
</svg>
