<?xml version="1.0" encoding="utf-8"?>
<!-- Generator: Adobe Illustrator 18.0.0, SVG Export Plug-In . SVG Version: 6.00 Build 0)  -->
<!DOCTYPE svg PUBLIC "-//W3C//DTD SVG 1.1//EN" "http://www.w3.org/Graphics/SVG/1.1/DTD/svg11.dtd">
<svg version="1.1" id="Layer_1" xmlns="http://www.w3.org/2000/svg" xmlns:xlink="http://www.w3.org/1999/xlink" x="0px" y="0px"
	 viewBox="0 0 612 792" enable-background="new 0 0 612 792" xml:space="preserve">
<path fill="#4593CF" d="M308.7,61.4c0,0,68-1.7,75.4,61.6c0.2,2,1.7,3.6,3.6,4l72.8,13.7c4.7,0.9,4.9,7.5,0.3,8.8l-73.4,19.4
	c-1.7,0.5-3,1.9-3.3,3.7c-1.5,10.3-8.9,45.6-41.8,57.4c-1.8,0.6-3,2.2-3.1,4.1l-3.5,117.3c0,0.3,0,0.6,0.1,0.9L382.4,639
	c0.1,0.8,0.5,1.6,1.1,2.3l71.7,79.9c2.6,2.9,0.5,7.5-3.3,7.5H158.2c-3.9,0-5.9-4.6-3.3-7.5l71.7-79.9c0.6-0.6,1-1.4,1.1-2.3
	l46.6-286.8c0-0.3,0.1-0.6,0.1-0.9l-3.5-117.3c-0.1-1.9-1.3-3.5-3.1-4.1c-37.1-13.1-44.2-47.1-45.4-57.4c-0.2-1.8-1.5-3.3-3.3-3.8
	l-70.6-19.4c-4.6-1.3-4.3-7.8,0.3-8.7l70-13.7c1.9-0.4,3.4-2,3.6-4c7.5-63.4,79-61.6,79-61.6H308.7z"/>
</svg>
