<svg id="Ebene_1" data-name="Ebene 1" xmlns="http://www.w3.org/2000/svg" viewBox="0 0 200 180"><path d="M131.06,133.87c-.17,17.51-17.57,36-30.37,36.72-10.26.14,4.34-8.05,12.18-16.28,11.66-13.33,9.1-27.9-1.37-22.12a16.54,16.54,0,0,0-8.21,12.42C101.11,161.08,88.73,174,75,166.24c-15.07-8.9-22.42-33.23-16.61-44.67,5-8.95,4.79,7.79,8,18.7C72.1,157,86,162.09,86.23,150.14a16.58,16.58,0,0,0-6.65-13.33C66.4,126.7,61.41,109.52,75,101.49c15.25-8.6,40-2.8,47,8,5.25,8.81-9.14.26-20.2-2.41-17.36-3.43-28.7,6.07-18.46,12.24a16.53,16.53,0,0,0,14.86.91C113.53,113.83,130.91,118.1,131.06,133.87Z"/></svg>
